<svg width="100" height="100" viewBox="0 0 100 100" fill="none" xmlns="http://www.w3.org/2000/svg">
<path fill-rule="evenodd" clip-rule="evenodd" d="M50.0541 4L87.3771 25.5484V68.6453L50.0541 90.1937L12.7311 68.6453V25.5484L50.0541 4ZM16.9188 27.9662V59.622L44.3336 12.1383L16.9188 27.9662ZM50.0541 10.6055L18.4516 65.3426H81.6566L50.0541 10.6055ZM77.4689 69.5303H22.6393L50.0541 85.3582L77.4689 69.5303ZM83.1894 59.622L55.7746 12.1383L83.1894 27.9662V59.622Z" fill="#AE1AF1"/>
<path d="M85.2833 35.5774C90.1545 35.5774 94.1033 31.6286 94.1033 26.7574C94.1033 21.8863 90.1545 17.9374 85.2833 17.9374C80.4122 17.9374 76.4633 21.8863 76.4633 26.7574C76.4633 31.6286 80.4122 35.5774 85.2833 35.5774Z" fill="#AE1AF1"/>
<path d="M50.0541 55.0969C56.1292 55.0969 61.0541 50.1721 61.0541 44.0969C61.0541 38.0218 56.1292 33.0969 50.0541 33.0969C43.979 33.0969 39.0541 38.0218 39.0541 44.0969C39.0541 50.1721 43.979 55.0969 50.0541 55.0969Z" fill="#AE1AF1"/>
<path d="M50.0541 96.596C54.9253 96.596 58.8741 92.6472 58.8741 87.776C58.8741 82.9049 54.9253 78.956 50.0541 78.956C45.1829 78.956 41.2341 82.9049 41.2341 87.776C41.2341 92.6472 45.1829 96.596 50.0541 96.596Z" fill="#AE1AF1"/>
<path d="M14.82 35.5774C19.6912 35.5774 23.64 31.6286 23.64 26.7574C23.64 21.8863 19.6912 17.9374 14.82 17.9374C9.94885 17.9374 6 21.8863 6 26.7574C6 31.6286 9.94885 35.5774 14.82 35.5774Z" fill="#AE1AF1"/>
<path d="M28.0541 44.0969C28.0541 44.0969 33.5827 56.0969 49.2425 56.0969C63.6827 56.0969 71.0541 44.0969 71.0541 44.0969" stroke="#AE1AF1" stroke-width="4"/>
<path d="M71.0541 44.0969C71.0541 44.0969 65.5255 32.0969 49.8657 32.0969C35.4255 32.0969 28.0541 44.0969 28.0541 44.0969" stroke="#AE1AF1" stroke-width="4"/>
</svg>
