<svg width="100" height="100" viewBox="0 0 100 100" fill="none" xmlns="http://www.w3.org/2000/svg">
<rect width="100" height="100" fill="#AE1AF1"/>
<path fill-rule="evenodd" clip-rule="evenodd" d="M50.0537 12.5165L80.5111 30.1011V65.2703L50.0537 82.8549L19.5962 65.2703V30.1011L50.0537 12.5165ZM23.0136 32.0742V57.9069L45.3854 19.1578L23.0136 32.0742ZM50.0537 17.907L24.2644 62.5752H75.8429L50.0537 17.907ZM72.4255 65.9925H27.6818L50.0537 78.9089L72.4255 65.9925ZM77.0937 57.9069L54.7219 19.1578L77.0937 32.0742V57.9069Z" fill="white"/>
<path d="M78.8024 38.2853C82.7775 38.2853 86 35.0628 86 31.0877C86 27.1126 82.7775 23.8902 78.8024 23.8902C74.8273 23.8902 71.6049 27.1126 71.6049 31.0877C71.6049 35.0628 74.8273 38.2853 78.8024 38.2853Z" fill="white"/>
<path d="M50.0537 54.2142C55.0113 54.2142 59.0302 50.1952 59.0302 45.2376C59.0302 40.28 55.0113 36.2611 50.0537 36.2611C45.0961 36.2611 41.0771 40.28 41.0771 45.2376C41.0771 50.1952 45.0961 54.2142 50.0537 54.2142Z" fill="white"/>
<path d="M50.0537 88.0795C54.0288 88.0795 57.2512 84.857 57.2512 80.8819C57.2512 76.9068 54.0288 73.6844 50.0537 73.6844C46.0786 73.6844 42.8561 76.9068 42.8561 80.8819C42.8561 84.857 46.0786 88.0795 50.0537 88.0795Z" fill="white"/>
<path d="M21.3009 38.2853C25.276 38.2853 28.4984 35.0628 28.4984 31.0877C28.4984 27.1126 25.276 23.8902 21.3009 23.8902C17.3258 23.8902 14.1033 27.1126 14.1033 31.0877C14.1033 35.0628 17.3258 38.2853 21.3009 38.2853Z" fill="white"/>
<path d="M32.1006 45.2376C32.1006 45.2376 36.6122 55.0302 49.3914 55.0302C61.1753 55.0302 67.1907 45.2376 67.1907 45.2376" stroke="white" stroke-width="3.2642"/>
<path d="M67.1907 45.2376C67.1907 45.2376 62.6791 35.445 49.8999 35.445C38.116 35.445 32.1006 45.2376 32.1006 45.2376" stroke="white" stroke-width="3.2642"/>
</svg>
