<svg width="347" height="100" viewBox="0 0 347 100" fill="none" xmlns="http://www.w3.org/2000/svg">
<rect width="347" height="100" fill="#AE1AF1"/>
<path fill-rule="evenodd" clip-rule="evenodd" d="M53.9503 12L84.4078 29.5846V64.7538L53.9503 82.3384L23.4929 64.7538V29.5846L53.9503 12ZM26.9103 31.5576V57.3903L49.2821 18.6413L26.9103 31.5576ZM53.9503 17.3904L28.1611 62.0586H79.7396L53.9503 17.3904ZM76.3222 65.476H31.5785L53.9503 78.3923L76.3222 65.476ZM80.9904 57.3903L58.6186 18.6413L80.9904 31.5576V57.3903Z" fill="white"/>
<path d="M82.6991 37.7688C86.6742 37.7688 89.8967 34.5463 89.8967 30.5712C89.8967 26.5961 86.6742 23.3736 82.6991 23.3736C78.724 23.3736 75.5016 26.5961 75.5016 30.5712C75.5016 34.5463 78.724 37.7688 82.6991 37.7688Z" fill="white"/>
<path d="M53.9503 53.6976C58.9079 53.6976 62.9269 49.6787 62.9269 44.7211C62.9269 39.7635 58.9079 35.7445 53.9503 35.7445C48.9927 35.7445 44.9738 39.7635 44.9738 44.7211C44.9738 49.6787 48.9927 53.6976 53.9503 53.6976Z" fill="white"/>
<path d="M53.9503 87.563C57.9254 87.563 61.1479 84.3405 61.1479 80.3654C61.1479 76.3903 57.9254 73.1678 53.9503 73.1678C49.9752 73.1678 46.7528 76.3903 46.7528 80.3654C46.7528 84.3405 49.9752 87.563 53.9503 87.563Z" fill="white"/>
<path d="M25.1976 37.7688C29.1727 37.7688 32.3951 34.5463 32.3951 30.5712C32.3951 26.5961 29.1727 23.3736 25.1976 23.3736C21.2225 23.3736 18 26.5961 18 30.5712C18 34.5463 21.2225 37.7688 25.1976 37.7688Z" fill="white"/>
<path d="M35.9973 44.7211C35.9973 44.7211 40.5088 54.5137 53.288 54.5137C65.0719 54.5137 71.0874 44.7211 71.0874 44.7211" stroke="white" stroke-width="3.2642"/>
<path d="M71.0874 44.7211C71.0874 44.7211 66.5758 34.9285 53.7966 34.9285C42.0127 34.9285 35.9972 44.7211 35.9972 44.7211" stroke="white" stroke-width="3.2642"/>
<path d="M125.145 67.528C122.681 67.528 120.361 67.08 118.185 66.184C116.041 65.288 114.169 64.056 112.569 62.488C110.969 60.888 109.705 59.032 108.777 56.92C107.881 54.776 107.433 52.472 107.433 50.008C107.433 47.544 107.897 45.256 108.825 43.144C109.753 41.032 111.033 39.192 112.665 37.624C114.329 36.024 116.265 34.792 118.473 33.928C120.681 33.032 123.049 32.584 125.577 32.584C128.489 32.584 131.129 33.112 133.497 34.168C135.897 35.224 137.881 36.68 139.449 38.536L134.313 43.672C133.225 42.264 131.945 41.208 130.473 40.504C129.001 39.8 127.337 39.448 125.481 39.448C123.497 39.448 121.721 39.896 120.153 40.792C118.585 41.656 117.353 42.888 116.457 44.488C115.593 46.056 115.161 47.896 115.161 50.008C115.161 52.12 115.593 53.976 116.457 55.576C117.321 57.176 118.505 58.424 120.009 59.32C121.513 60.216 123.241 60.664 125.193 60.664C127.177 60.664 128.857 60.296 130.233 59.56C131.641 58.792 132.713 57.704 133.449 56.296C134.217 54.856 134.601 53.112 134.601 51.064L139.593 54.424L124.473 54.184V47.8H142.281V48.904C142.281 52.968 141.545 56.392 140.073 59.176C138.633 61.928 136.617 64.008 134.025 65.416C131.465 66.824 128.505 67.528 125.145 67.528ZM146.176 67V43.672H153.52V67H146.176ZM153.52 54.184L150.448 51.784C151.056 49.064 152.08 46.952 153.52 45.448C154.96 43.944 156.96 43.192 159.52 43.192C160.64 43.192 161.616 43.368 162.448 43.72C163.312 44.04 164.064 44.552 164.704 45.256L160.336 50.776C160.016 50.424 159.616 50.152 159.136 49.96C158.656 49.768 158.112 49.672 157.504 49.672C156.288 49.672 155.312 50.056 154.576 50.824C153.872 51.56 153.52 52.68 153.52 54.184ZM175.748 67.48C173.604 67.48 171.684 66.952 169.988 65.896C168.324 64.84 166.996 63.4 166.004 61.576C165.044 59.752 164.564 57.672 164.564 55.336C164.564 53 165.044 50.92 166.004 49.096C166.996 47.272 168.324 45.832 169.988 44.776C171.684 43.72 173.604 43.192 175.748 43.192C177.316 43.192 178.724 43.496 179.972 44.104C181.252 44.712 182.292 45.56 183.092 46.648C183.892 47.704 184.34 48.92 184.436 50.296V60.376C184.34 61.752 183.892 62.984 183.092 64.072C182.324 65.128 181.3 65.96 180.02 66.568C178.74 67.176 177.316 67.48 175.748 67.48ZM177.236 60.856C178.804 60.856 180.068 60.344 181.028 59.32C181.988 58.264 182.468 56.936 182.468 55.336C182.468 54.248 182.244 53.288 181.796 52.456C181.38 51.624 180.772 50.984 179.972 50.536C179.204 50.056 178.308 49.816 177.284 49.816C176.26 49.816 175.348 50.056 174.548 50.536C173.78 50.984 173.156 51.624 172.676 52.456C172.228 53.288 172.004 54.248 172.004 55.336C172.004 56.392 172.228 57.336 172.676 58.168C173.124 59 173.748 59.656 174.548 60.136C175.348 60.616 176.244 60.856 177.236 60.856ZM182.18 67V60.712L183.284 55.048L182.18 49.384V43.672H189.38V67H182.18ZM207.991 67.48C206.423 67.48 204.983 67.176 203.671 66.568C202.359 65.96 201.287 65.128 200.455 64.072C199.623 62.984 199.143 61.752 199.015 60.376V50.536C199.143 49.16 199.623 47.912 200.455 46.792C201.287 45.672 202.359 44.792 203.671 44.152C204.983 43.512 206.423 43.192 207.991 43.192C210.199 43.192 212.151 43.72 213.847 44.776C215.575 45.832 216.919 47.272 217.879 49.096C218.871 50.92 219.367 53 219.367 55.336C219.367 57.672 218.871 59.752 217.879 61.576C216.919 63.4 215.575 64.84 213.847 65.896C212.151 66.952 210.199 67.48 207.991 67.48ZM206.647 60.856C207.703 60.856 208.615 60.616 209.383 60.136C210.183 59.656 210.807 59 211.255 58.168C211.703 57.336 211.927 56.392 211.927 55.336C211.927 54.248 211.703 53.288 211.255 52.456C210.807 51.624 210.183 50.984 209.383 50.536C208.615 50.056 207.719 49.816 206.695 49.816C205.671 49.816 204.759 50.056 203.959 50.536C203.191 50.984 202.583 51.624 202.135 52.456C201.687 53.288 201.463 54.248 201.463 55.336C201.463 56.392 201.671 57.336 202.087 58.168C202.535 59 203.159 59.656 203.959 60.136C204.759 60.616 205.655 60.856 206.647 60.856ZM194.551 76.84V43.672H201.895V49.672L200.695 55.336L201.799 61V76.84H194.551ZM238.506 67V53.704C238.506 52.488 238.122 51.512 237.354 50.776C236.618 50.008 235.674 49.624 234.522 49.624C233.722 49.624 233.018 49.8 232.41 50.152C231.802 50.472 231.322 50.952 230.97 51.592C230.618 52.2 230.442 52.904 230.442 53.704L227.61 52.312C227.61 50.488 227.994 48.888 228.762 47.512C229.53 46.136 230.602 45.08 231.978 44.344C233.354 43.576 234.938 43.192 236.73 43.192C238.554 43.192 240.154 43.576 241.53 44.344C242.906 45.08 243.962 46.12 244.698 47.464C245.466 48.776 245.85 50.312 245.85 52.072V67H238.506ZM223.098 67V32.152H230.442V67H223.098ZM250.567 67V43.672H257.911V67H250.567ZM254.263 40.456C253.111 40.456 252.151 40.072 251.383 39.304C250.647 38.504 250.279 37.544 250.279 36.424C250.279 35.272 250.647 34.312 251.383 33.544C252.151 32.776 253.111 32.392 254.263 32.392C255.415 32.392 256.359 32.776 257.095 33.544C257.831 34.312 258.199 35.272 258.199 36.424C258.199 37.544 257.831 38.504 257.095 39.304C256.359 40.072 255.415 40.456 254.263 40.456ZM278.49 67V53.704C278.49 52.488 278.106 51.512 277.338 50.776C276.602 50.008 275.658 49.624 274.506 49.624C273.706 49.624 273.002 49.8 272.394 50.152C271.786 50.472 271.306 50.952 270.954 51.592C270.602 52.2 270.426 52.904 270.426 53.704L267.594 52.312C267.594 50.488 267.994 48.888 268.794 47.512C269.594 46.136 270.698 45.08 272.106 44.344C273.546 43.576 275.162 43.192 276.954 43.192C278.682 43.192 280.202 43.608 281.514 44.44C282.858 45.24 283.914 46.312 284.682 47.656C285.45 49 285.834 50.472 285.834 52.072V67H278.49ZM263.082 67V43.672H270.426V67H263.082ZM304.999 67L299.383 57.928L297.799 56.92L288.631 43.672H297.223L302.455 52.168L303.991 53.128L313.495 67H304.999ZM288.199 67L297.751 53.416L301.927 58.12L296.215 67H288.199ZM303.943 56.872L299.767 52.168L305.047 43.672H313.015L303.943 56.872Z" fill="white"/>
</svg>
